<svg xmlns="http://www.w3.org/2000/svg" viewBox="0 0 512 512">
  <defs>
    <linearGradient id="bg" x1="0%" y1="0%" x2="100%" y2="100%">
      <stop offset="0%" stop-color="#0ea5e9"/>
      <stop offset="100%" stop-color="#0284c7"/>
    </linearGradient>
    <filter id="shadow" x="-20%" y="-20%" width="140%" height="140%">
      <feDropShadow dx="0" dy="8" stdDeviation="16" flood-color="#0ea5e9" flood-opacity="0.25"/>
    </filter>
  </defs>
  <rect width="512" height="512" rx="120" fill="url(#bg)" filter="url(#shadow)"/>
  <!-- Receipt body -->
  <path d="M148 128 h216 a20 20 0 0 1 20 20 v216 a20 20 0 0 1 -32.5 15.5 L332 368 l-36 24 -36 -24 -36 24 -36 -24 -36 24 -36 -24 a20 20 0 0 1 -32.5 -15.5 V148 a20 20 0 0 1 20 -20z" fill="#ffffff" opacity="0.96"/>
  <!-- Top accent bar -->
  <rect x="180" y="168" width="152" height="16" rx="8" fill="#0ea5e9" opacity="0.95"/>
  <!-- Middle lines -->
  <rect x="180" y="208" width="120" height="12" rx="6" fill="#0ea5e9" opacity="0.5"/>
  <rect x="180" y="240" width="152" height="12" rx="6" fill="#0ea5e9" opacity="0.5"/>
  <rect x="180" y="272" width="100" height="12" rx="6" fill="#0ea5e9" opacity="0.35"/>
  <!-- Rupee symbol as paths -->
  <path d="M180 324 h48 M180 324 v6 h18 a14 14 0 0 1 0 28 h-18 M192 358 l24 30" stroke="#0ea5e9" stroke-width="10" stroke-linecap="round" stroke-linejoin="round" fill="none" opacity="0.9"/>
</svg>
